<?xml version="1.0" encoding="utf-8"?>
<!-- Generator: Adobe Illustrator 23.0.1, SVG Export Plug-In . SVG Version: 6.00 Build 0)  -->
<svg version="1.1" id="Layer_1" xmlns="http://www.w3.org/2000/svg" xmlns:xlink="http://www.w3.org/1999/xlink" x="0px" y="0px"
	 viewBox="0 0 362.8 722.8" style="enable-background:new 0 0 362.8 722.8;" xml:space="preserve">
<style type="text/css">
	.st0{fill:#B2B2B2;}
	.st1{fill:#D8D8D8;}
	.st2{fill:#010101;}
	.st3{fill:#323232;}
</style>
<g>
	<path class="st0" d="M317,722.8c-90.4,0-180.8,0-271.1,0c-0.5-0.8-1.3-0.9-2.1-1c-24.3-5.2-41-27.8-40.9-52.3
		C3.2,538.1,3,406.6,3,275.1c0-1.2-0.1-2.3,0-3.5c0.3-1.9-0.7-3.1-2.1-4.1c0-16.9,0-33.8,0-50.8c2.9-3.3,2.9-12.5,0-15.8
		c0-16.9,0-33.8,0-50.8C3,148.9,3,147,3,145c-0.1-8.9,0.2-18.2-0.1-27.1C2.4,102.5,3.5,88,3.1,73.5c-0.2-7.1-0.2-14.2-0.1-21.3
		c0.2-22.9,15.6-43.9,36.5-50C41.6,1.5,44,1.6,45.9,0C136.2,0,226.6,0,317,0c0.5,0.8,1.3,0.9,2.1,1c24.3,5.2,41.4,27.8,40.9,52.3
		c-0.7,36.3-0.2,72.5-0.2,108.8c0,2.6,0,5,2.2,6.8c0,25.2-0.1,50.3-0.1,75.5c0,1.1-0.2,2.4,1,3.1c0,0.7,0,1.3,0,2
		c-3.9,1-3,4.2-3,6.9c0,138.2,0,276.3,0,414.5c0,23.1-13.9,42.2-35.9,49.5C321.6,721.3,319,721.2,317,722.8z M7.9,361.4
		C8,361.4,8,361.4,7.9,361.4c0,103.2,0,206.5,0,309.7c0,26.1,20.6,46.8,46.6,46.8c84.6,0,169.1,0,253.7,0
		c25.8,0,46.6-20.6,46.6-46.3c0-206.8,0-413.6,0-620.4c0-25.6-20.8-46.3-46.6-46.3C223.7,5,139.1,5,54.6,5C28.5,5,7.9,25.6,7.9,51.7
		C7.9,155,7.9,258.2,7.9,361.4z"/>
	<path class="st1" d="M362.8,247.6c-1.1-0.8-1-2-1-3.1c0-25.2,0.1-50.3,0.1-75.5c0.3,0,0.6,0,0.9,0.1"/>
	<path class="st1" d="M0,150.1c0.3,0,0.6,0,1,0c0,16.9,0,33.8,0,50.8c-0.3,0-0.6,0-1,0C0,183.9,0,167,0,150.1z"/>
	<path class="st1" d="M1,267.5c-0.3,0-0.6,0-1,0c0-16.9,0-33.8,0-50.7c0.3,0,0.6,0,1,0C1,233.6,1,250.6,1,267.5z"/>
	<path class="st2" d="M7.9,361.4c0-103.2,0-206.5,0-309.7C7.9,25.6,28.5,5,54.6,5c84.6,0,169.1,0,253.7,0
		c25.8,0,46.6,20.6,46.6,46.3c0,206.8,0,413.6,0,620.4c0,25.7-20.8,46.3-46.6,46.3c-84.6,0-169.1,0-253.7,0
		C28.5,717.9,8,697.2,8,671.1C8,567.9,8,464.7,7.9,361.4C8,361.4,8,361.4,7.9,361.4z M338.9,363c0-78.4,0-156.7,0-235.1
		c0-23.4-0.1-46.7-0.2-70.1c-0.1-19.3-9-31.4-26.2-34.5c-12.4-2.3-25.2-1.6-37.8-1.2c-3.9,0.1-5.6,2.5-5.8,6.6
		c-0.5,10.2-5.1,15.2-15,17.4c-2.6,0.6-5.3,0.7-7.9,0.7c-23.6,0-47.2,0-70.8,0c-20.3,0-40.5,0.1-60.8,0
		c-13.3-0.1-19.6-5.9-20.6-18.9c-0.3-4.4-3-5.7-6.6-5.8c-11.8-0.2-23.6-0.6-35.3,1c-15.8,2.1-25.7,12.9-27.3,28.8
		C24,59.1,24,66.3,23.9,73.6c0,192.7,0,385.4,0,578.1c0,5.3,0.1,10.6,0.2,15.9c0.4,18,8.9,29.2,24.9,33.1c3.9,0.9,7.8,1.3,11.8,1.3
		c54.3-0.1,108.6,0,162.9,0c26.7,0,53.5,0.1,80.2,0c20.1-0.1,31.9-10.3,34.5-29.8c0.4-2.9,0.3-5.9,0.3-8.9
		C338.9,563.2,338.9,463.1,338.9,363z M181.3,31.8c6,0,11.9,0,17.9,0c1.9,0,3.3-0.4,3.2-2.7c-0.1-2-1.5-2.3-3.1-2.3
		c-11.7,0-23.5,0-35.2,0c-1.8,0-3.4,0.5-3.5,2.6c-0.1,2.4,1.7,2.4,3.4,2.4C169.7,31.9,175.5,31.9,181.3,31.8z M225.4,29
		c0-4.2-1.9-6.2-5.6-6.1c-3.8,0.1-5.7,2.3-6.1,5.8c-0.3,3.5,2.6,6.3,6.2,6.1C223.6,34.6,225.8,32.7,225.4,29z"/>
	<path class="st3" d="M181.3,31.9c-5.8,0-11.6,0-17.4,0c-1.7,0-3.6,0-3.4-2.4c0.1-2.1,1.7-2.6,3.5-2.6c11.7,0,23.5,0,35.2,0
		c1.6,0,3,0.3,3.1,2.3c0.1,2.3-1.4,2.7-3.2,2.7C193.2,31.8,187.3,31.8,181.3,31.9z"/>
	<ellipse class="st3" cx="219.7" cy="28.8" rx="6.6" ry="6.6"/>
</g>
</svg>
